{
	"asset":{
		"generator":"Khronos glTF Blender I/O v4.2.57",
		"version":"2.0"
	},
	"scene":0,
	"scenes":[
		{
			"name":"Scene",
			"nodes":[
				0,
				1,
				2
			]
		}
	],
	"nodes":[
		{
			"mesh":0,
			"name":"Vespe"
		},
		{
			"mesh":1,
			"name":"Icosphere",
			"rotation":[
				0.08904096484184265,
				-0.8367651700973511,
				0.4821939170360565,
				0.24368992447853088
			],
			"scale":[
				-0.4000246226787567,
				-0.4561280608177185,
				-0.6552374958992004
			],
			"translation":[
				0.30681508779525757,
				3.7041409015655518,
				-0.08081977069377899
			]
		},
		{
			"mesh":2,
			"name":"Vespe.001",
			"rotation":[
				-0.9305557608604431,
				0.3560456335544586,
				-0.007070978172123432,
				0.08513351529836655
			],
			"scale":[
				-1.2063710689544678,
				-1.094377875328064,
				-0.7321404218673706
			],
			"translation":[
				-0.6383850574493408,
				4.310300350189209,
				0.05934840813279152
			]
		}
	],
	"materials":[
		{
			"doubleSided":true,
			"name":"Vespe_Mat",
			"pbrMetallicRoughness":{
				"baseColorFactor":[
					0.49953269958496094,
					0.4229409694671631,
					0,
					1
				],
				"metallicFactor":0,
				"roughnessFactor":0.5
			}
		},
		{
			"doubleSided":true,
			"name":"Material.001",
			"pbrMetallicRoughness":{
				"baseColorTexture":{
					"index":0
				},
				"metallicFactor":0,
				"roughnessFactor":0.5
			}
		}
	],
	"meshes":[
		{
			"name":"Plane.001",
			"primitives":[
				{
					"attributes":{
						"POSITION":0,
						"NORMAL":1,
						"TEXCOORD_0":2,
						"COLOR_0":3,
						"COLOR_1":4
					},
					"indices":5,
					"material":0
				}
			]
		},
		{
			"name":"Icosphere",
			"primitives":[
				{
					"attributes":{
						"POSITION":6,
						"NORMAL":7,
						"TEXCOORD_0":8
					},
					"indices":9
				}
			]
		},
		{
			"name":"Sphere.002",
			"primitives":[
				{
					"attributes":{
						"POSITION":10,
						"NORMAL":11,
						"TEXCOORD_0":12,
						"COLOR_0":13,
						"COLOR_1":14,
						"COLOR_2":15
					},
					"indices":16,
					"material":1
				}
			]
		}
	],
	"textures":[
		{
			"sampler":0,
			"source":0
		}
	],
	"images":[
		{
			"mimeType":"image/png",
			"name":"Vespe Base Color",
			"uri":"Vespe%20Base%20Color.png"
		}
	],
	"accessors":[
		{
			"bufferView":0,
			"componentType":5126,
			"count":9547,
			"max":[
				1.543641209602356,
				4.151598930358887,
				1.5852901935577393
			],
			"min":[
				-1.5279130935668945,
				-0.09981018304824829,
				-1.977245569229126
			],
			"type":"VEC3"
		},
		{
			"bufferView":1,
			"componentType":5126,
			"count":9547,
			"type":"VEC3"
		},
		{
			"bufferView":2,
			"componentType":5126,
			"count":9547,
			"type":"VEC2"
		},
		{
			"bufferView":3,
			"componentType":5121,
			"count":9547,
			"normalized":true,
			"type":"VEC4"
		},
		{
			"bufferView":4,
			"componentType":5126,
			"count":9547,
			"type":"VEC3"
		},
		{
			"bufferView":5,
			"componentType":5123,
			"count":11832,
			"type":"SCALAR"
		},
		{
			"bufferView":6,
			"componentType":5126,
			"count":1920,
			"max":[
				0.45191144943237305,
				0.4606051743030548,
				0.4529227316379547
			],
			"min":[
				-1.9148958921432495,
				-0.9640617370605469,
				-0.7031702399253845
			],
			"type":"VEC3"
		},
		{
			"bufferView":7,
			"componentType":5126,
			"count":1920,
			"type":"VEC3"
		},
		{
			"bufferView":8,
			"componentType":5126,
			"count":1920,
			"type":"VEC2"
		},
		{
			"bufferView":9,
			"componentType":5123,
			"count":2880,
			"type":"SCALAR"
		},
		{
			"bufferView":10,
			"componentType":5126,
			"count":2218,
			"max":[
				0.670720100402832,
				1.5187499523162842,
				0.3321761190891266
			],
			"min":[
				-0.9358954429626465,
				-0.062116704881191254,
				-0.33972305059432983
			],
			"type":"VEC3"
		},
		{
			"bufferView":11,
			"componentType":5126,
			"count":2218,
			"type":"VEC3"
		},
		{
			"bufferView":12,
			"componentType":5126,
			"count":2218,
			"type":"VEC2"
		},
		{
			"bufferView":13,
			"componentType":5121,
			"count":2218,
			"normalized":true,
			"type":"VEC4"
		},
		{
			"bufferView":14,
			"componentType":5126,
			"count":2218,
			"type":"VEC3"
		},
		{
			"bufferView":15,
			"componentType":5126,
			"count":2218,
			"type":"VEC3"
		},
		{
			"bufferView":16,
			"componentType":5123,
			"count":3384,
			"type":"SCALAR"
		}
	],
	"bufferViews":[
		{
			"buffer":0,
			"byteLength":114564,
			"byteOffset":0,
			"target":34962
		},
		{
			"buffer":0,
			"byteLength":114564,
			"byteOffset":114564,
			"target":34962
		},
		{
			"buffer":0,
			"byteLength":76376,
			"byteOffset":229128,
			"target":34962
		},
		{
			"buffer":0,
			"byteLength":38188,
			"byteOffset":305504,
			"target":34962
		},
		{
			"buffer":0,
			"byteLength":114564,
			"byteOffset":343692,
			"target":34962
		},
		{
			"buffer":0,
			"byteLength":23664,
			"byteOffset":458256,
			"target":34963
		},
		{
			"buffer":0,
			"byteLength":23040,
			"byteOffset":481920,
			"target":34962
		},
		{
			"buffer":0,
			"byteLength":23040,
			"byteOffset":504960,
			"target":34962
		},
		{
			"buffer":0,
			"byteLength":15360,
			"byteOffset":528000,
			"target":34962
		},
		{
			"buffer":0,
			"byteLength":5760,
			"byteOffset":543360,
			"target":34963
		},
		{
			"buffer":0,
			"byteLength":26616,
			"byteOffset":549120,
			"target":34962
		},
		{
			"buffer":0,
			"byteLength":26616,
			"byteOffset":575736,
			"target":34962
		},
		{
			"buffer":0,
			"byteLength":17744,
			"byteOffset":602352,
			"target":34962
		},
		{
			"buffer":0,
			"byteLength":8872,
			"byteOffset":620096,
			"target":34962
		},
		{
			"buffer":0,
			"byteLength":26616,
			"byteOffset":628968,
			"target":34962
		},
		{
			"buffer":0,
			"byteLength":26616,
			"byteOffset":655584,
			"target":34962
		},
		{
			"buffer":0,
			"byteLength":6768,
			"byteOffset":682200,
			"target":34963
		}
	],
	"samplers":[
		{
			"magFilter":9729,
			"minFilter":9987
		}
	],
	"buffers":[
		{
			"byteLength":688968,
			"uri":"Vespe%20-%20Blender%20Sculpting%20base%20practice%202.bin"
		}
	]
}
